<mxfile host="Electron" agent="Mozilla/5.0 (Windows NT 10.0; Win64; x64) AppleWebKit/537.36 (KHTML, like Gecko) draw.io/26.1.1 Chrome/132.0.6834.210 Electron/34.3.3 Safari/537.36" version="26.1.1">
  <diagram name="Page-1" id="9j6oPLn0Y7csa5CQpHIt">
    <mxGraphModel dx="1036" dy="702" grid="1" gridSize="10" guides="1" tooltips="1" connect="1" arrows="1" fold="1" page="1" pageScale="1" pageWidth="850" pageHeight="1100" math="0" shadow="0">
      <root>
        <mxCell id="0" />
        <mxCell id="1" parent="0" />
        <mxCell id="7KX60_L7PwlLOZPD1mbC-1" value="&lt;b&gt;&lt;font style=&quot;font-size: 18px;&quot;&gt;FACT&lt;/font&gt;&lt;/b&gt;" style="rounded=0;whiteSpace=wrap;html=1;fillColor=#fff2cc;strokeColor=#d6b656;sketch=1;curveFitting=1;jiggle=2;" parent="1" vertex="1">
          <mxGeometry x="128" y="350" width="120" height="140" as="geometry" />
        </mxCell>
        <mxCell id="7KX60_L7PwlLOZPD1mbC-2" value="&lt;b&gt;DIM&lt;/b&gt;" style="rounded=0;whiteSpace=wrap;html=1;fillColor=#dae8fc;strokeColor=#6c8ebf;shadow=0;sketch=1;curveFitting=1;jiggle=2;" parent="1" vertex="1">
          <mxGeometry x="288" y="261" width="60" height="70" as="geometry" />
        </mxCell>
        <mxCell id="7KX60_L7PwlLOZPD1mbC-3" value="&lt;b&gt;DIM&lt;/b&gt;" style="rounded=0;whiteSpace=wrap;html=1;fillColor=#dae8fc;strokeColor=#6c8ebf;shadow=0;sketch=1;curveFitting=1;jiggle=2;" parent="1" vertex="1">
          <mxGeometry x="26" y="270" width="60" height="70" as="geometry" />
        </mxCell>
        <mxCell id="7KX60_L7PwlLOZPD1mbC-4" value="&lt;b&gt;DIM&lt;/b&gt;" style="rounded=0;whiteSpace=wrap;html=1;fillColor=#dae8fc;strokeColor=#6c8ebf;sketch=1;curveFitting=1;jiggle=2;" parent="1" vertex="1">
          <mxGeometry x="46" y="520" width="60" height="70" as="geometry" />
        </mxCell>
        <mxCell id="7KX60_L7PwlLOZPD1mbC-5" value="&lt;b&gt;DIM&lt;/b&gt;" style="rounded=0;whiteSpace=wrap;html=1;fillColor=#dae8fc;strokeColor=#6c8ebf;sketch=1;curveFitting=1;jiggle=2;" parent="1" vertex="1">
          <mxGeometry x="288" y="521" width="60" height="70" as="geometry" />
        </mxCell>
        <mxCell id="7KX60_L7PwlLOZPD1mbC-6" value="&lt;b&gt;DIM&lt;/b&gt;" style="rounded=0;whiteSpace=wrap;html=1;fillColor=#dae8fc;strokeColor=#6c8ebf;shadow=0;sketch=1;curveFitting=1;jiggle=2;" parent="1" vertex="1">
          <mxGeometry x="158" y="220" width="60" height="70" as="geometry" />
        </mxCell>
        <mxCell id="7KX60_L7PwlLOZPD1mbC-7" value="" style="shape=flexArrow;endArrow=classic;html=1;rounded=0;sketch=1;curveFitting=1;jiggle=2;" parent="1" edge="1">
          <mxGeometry width="50" height="50" relative="1" as="geometry">
            <mxPoint x="248" y="360" as="sourcePoint" />
            <mxPoint x="298" y="310" as="targetPoint" />
          </mxGeometry>
        </mxCell>
        <mxCell id="7KX60_L7PwlLOZPD1mbC-8" value="" style="shape=flexArrow;endArrow=classic;html=1;rounded=0;flowAnimation=0;sketch=1;curveFitting=1;jiggle=2;" parent="1" edge="1">
          <mxGeometry width="50" height="50" relative="1" as="geometry">
            <mxPoint x="238" y="480" as="sourcePoint" />
            <mxPoint x="288" y="530" as="targetPoint" />
          </mxGeometry>
        </mxCell>
        <mxCell id="7KX60_L7PwlLOZPD1mbC-9" value="" style="shape=flexArrow;endArrow=classic;html=1;rounded=0;exitX=0.2;exitY=0.857;exitDx=0;exitDy=0;exitPerimeter=0;sketch=1;curveFitting=1;jiggle=2;" parent="1" source="7KX60_L7PwlLOZPD1mbC-1" edge="1">
          <mxGeometry width="50" height="50" relative="1" as="geometry">
            <mxPoint x="127.99615384615393" y="461" as="sourcePoint" />
            <mxPoint x="102.15" y="521" as="targetPoint" />
          </mxGeometry>
        </mxCell>
        <mxCell id="7KX60_L7PwlLOZPD1mbC-10" value="" style="shape=flexArrow;endArrow=classic;html=1;rounded=0;sketch=1;curveFitting=1;jiggle=2;" parent="1" edge="1">
          <mxGeometry width="50" height="50" relative="1" as="geometry">
            <mxPoint x="192" y="360" as="sourcePoint" />
            <mxPoint x="192" y="280" as="targetPoint" />
          </mxGeometry>
        </mxCell>
        <mxCell id="7KX60_L7PwlLOZPD1mbC-11" value="" style="shape=flexArrow;endArrow=classic;html=1;rounded=0;entryX=0.976;entryY=0.667;entryDx=0;entryDy=0;entryPerimeter=0;exitX=0.117;exitY=0.143;exitDx=0;exitDy=0;exitPerimeter=0;sketch=1;curveFitting=1;jiggle=2;" parent="1" source="7KX60_L7PwlLOZPD1mbC-1" target="7KX60_L7PwlLOZPD1mbC-3" edge="1">
          <mxGeometry width="50" height="50" relative="1" as="geometry">
            <mxPoint x="128" y="380" as="sourcePoint" />
            <mxPoint x="128" y="300" as="targetPoint" />
          </mxGeometry>
        </mxCell>
        <mxCell id="7KX60_L7PwlLOZPD1mbC-12" value="&lt;b&gt;&lt;font style=&quot;font-size: 18px;&quot;&gt;FACT&lt;/font&gt;&lt;/b&gt;" style="rounded=0;whiteSpace=wrap;html=1;fillColor=#fff2cc;strokeColor=#d6b656;sketch=1;curveFitting=1;jiggle=2;" parent="1" vertex="1">
          <mxGeometry x="564" y="350" width="120" height="140" as="geometry" />
        </mxCell>
        <mxCell id="7KX60_L7PwlLOZPD1mbC-13" value="&lt;b&gt;DIM&lt;/b&gt;" style="rounded=0;whiteSpace=wrap;html=1;fillColor=#dae8fc;strokeColor=#6c8ebf;shadow=0;sketch=1;curveFitting=1;jiggle=2;" parent="1" vertex="1">
          <mxGeometry x="724" y="261" width="60" height="70" as="geometry" />
        </mxCell>
        <mxCell id="7KX60_L7PwlLOZPD1mbC-14" value="&lt;b&gt;DIM&lt;/b&gt;" style="rounded=0;whiteSpace=wrap;html=1;fillColor=#dae8fc;strokeColor=#6c8ebf;shadow=0;sketch=1;curveFitting=1;jiggle=2;" parent="1" vertex="1">
          <mxGeometry x="462" y="270" width="60" height="70" as="geometry" />
        </mxCell>
        <mxCell id="7KX60_L7PwlLOZPD1mbC-15" value="&lt;b&gt;DIM&lt;/b&gt;" style="rounded=0;whiteSpace=wrap;html=1;fillColor=#dae8fc;strokeColor=#6c8ebf;sketch=1;curveFitting=1;jiggle=2;" parent="1" vertex="1">
          <mxGeometry x="482" y="520" width="60" height="70" as="geometry" />
        </mxCell>
        <mxCell id="7KX60_L7PwlLOZPD1mbC-16" value="&lt;b&gt;DIM&lt;/b&gt;" style="rounded=0;whiteSpace=wrap;html=1;fillColor=#dae8fc;strokeColor=#6c8ebf;sketch=1;curveFitting=1;jiggle=2;" parent="1" vertex="1">
          <mxGeometry x="724" y="521" width="60" height="70" as="geometry" />
        </mxCell>
        <mxCell id="7KX60_L7PwlLOZPD1mbC-17" value="&lt;b&gt;DIM&lt;/b&gt;" style="rounded=0;whiteSpace=wrap;html=1;fillColor=#dae8fc;strokeColor=#6c8ebf;shadow=0;sketch=1;curveFitting=1;jiggle=2;" parent="1" vertex="1">
          <mxGeometry x="594" y="220" width="60" height="70" as="geometry" />
        </mxCell>
        <mxCell id="7KX60_L7PwlLOZPD1mbC-18" value="" style="shape=flexArrow;endArrow=classic;html=1;rounded=0;sketch=1;curveFitting=1;jiggle=2;" parent="1" edge="1">
          <mxGeometry width="50" height="50" relative="1" as="geometry">
            <mxPoint x="684" y="360" as="sourcePoint" />
            <mxPoint x="734" y="310" as="targetPoint" />
          </mxGeometry>
        </mxCell>
        <mxCell id="7KX60_L7PwlLOZPD1mbC-19" value="" style="shape=flexArrow;endArrow=classic;html=1;rounded=0;flowAnimation=0;sketch=1;curveFitting=1;jiggle=2;" parent="1" edge="1">
          <mxGeometry width="50" height="50" relative="1" as="geometry">
            <mxPoint x="674" y="480" as="sourcePoint" />
            <mxPoint x="724" y="530" as="targetPoint" />
          </mxGeometry>
        </mxCell>
        <mxCell id="7KX60_L7PwlLOZPD1mbC-20" value="" style="shape=flexArrow;endArrow=classic;html=1;rounded=0;exitX=0.2;exitY=0.857;exitDx=0;exitDy=0;exitPerimeter=0;sketch=1;curveFitting=1;jiggle=2;" parent="1" source="7KX60_L7PwlLOZPD1mbC-12" edge="1">
          <mxGeometry width="50" height="50" relative="1" as="geometry">
            <mxPoint x="563.9961538461539" y="461" as="sourcePoint" />
            <mxPoint x="538.15" y="521" as="targetPoint" />
          </mxGeometry>
        </mxCell>
        <mxCell id="7KX60_L7PwlLOZPD1mbC-21" value="" style="shape=flexArrow;endArrow=classic;html=1;rounded=0;sketch=1;curveFitting=1;jiggle=2;" parent="1" edge="1">
          <mxGeometry width="50" height="50" relative="1" as="geometry">
            <mxPoint x="628" y="360" as="sourcePoint" />
            <mxPoint x="628" y="280" as="targetPoint" />
          </mxGeometry>
        </mxCell>
        <mxCell id="7KX60_L7PwlLOZPD1mbC-22" value="" style="shape=flexArrow;endArrow=classic;html=1;rounded=0;entryX=0.976;entryY=0.667;entryDx=0;entryDy=0;entryPerimeter=0;exitX=0.117;exitY=0.143;exitDx=0;exitDy=0;exitPerimeter=0;sketch=1;curveFitting=1;jiggle=2;" parent="1" source="7KX60_L7PwlLOZPD1mbC-12" target="7KX60_L7PwlLOZPD1mbC-14" edge="1">
          <mxGeometry width="50" height="50" relative="1" as="geometry">
            <mxPoint x="564" y="380" as="sourcePoint" />
            <mxPoint x="564" y="300" as="targetPoint" />
          </mxGeometry>
        </mxCell>
        <mxCell id="7KX60_L7PwlLOZPD1mbC-23" value="&lt;b&gt;DIM&lt;/b&gt;" style="rounded=0;whiteSpace=wrap;html=1;fillColor=#dae8fc;strokeColor=#6c8ebf;shadow=0;sketch=1;curveFitting=1;jiggle=2;" parent="1" vertex="1">
          <mxGeometry x="422" y="220" width="30" height="41" as="geometry" />
        </mxCell>
        <mxCell id="7KX60_L7PwlLOZPD1mbC-24" value="&lt;b&gt;DIM&lt;/b&gt;" style="rounded=0;whiteSpace=wrap;html=1;fillColor=#dae8fc;strokeColor=#6c8ebf;shadow=0;sketch=1;curveFitting=1;jiggle=2;" parent="1" vertex="1">
          <mxGeometry x="422" y="320" width="30" height="41" as="geometry" />
        </mxCell>
        <mxCell id="7KX60_L7PwlLOZPD1mbC-25" value="&lt;b&gt;DIM&lt;/b&gt;" style="rounded=0;whiteSpace=wrap;html=1;fillColor=#dae8fc;strokeColor=#6c8ebf;shadow=0;sketch=1;curveFitting=1;jiggle=2;" parent="1" vertex="1">
          <mxGeometry x="562" y="170" width="30" height="41" as="geometry" />
        </mxCell>
        <mxCell id="7KX60_L7PwlLOZPD1mbC-26" value="&lt;b&gt;DIM&lt;/b&gt;" style="rounded=0;whiteSpace=wrap;html=1;fillColor=#dae8fc;strokeColor=#6c8ebf;shadow=0;sketch=1;curveFitting=1;jiggle=2;" parent="1" vertex="1">
          <mxGeometry x="654" y="170" width="30" height="41" as="geometry" />
        </mxCell>
        <mxCell id="7KX60_L7PwlLOZPD1mbC-27" value="&lt;b&gt;DIM&lt;/b&gt;" style="rounded=0;whiteSpace=wrap;html=1;fillColor=#dae8fc;strokeColor=#6c8ebf;shadow=0;sketch=1;curveFitting=1;jiggle=2;" parent="1" vertex="1">
          <mxGeometry x="784" y="200" width="30" height="41" as="geometry" />
        </mxCell>
        <mxCell id="7KX60_L7PwlLOZPD1mbC-28" value="&lt;b&gt;DIM&lt;/b&gt;" style="rounded=0;whiteSpace=wrap;html=1;fillColor=#dae8fc;strokeColor=#6c8ebf;shadow=0;sketch=1;curveFitting=1;jiggle=2;" parent="1" vertex="1">
          <mxGeometry x="794" y="320" width="30" height="41" as="geometry" />
        </mxCell>
        <mxCell id="7KX60_L7PwlLOZPD1mbC-29" value="&lt;b&gt;DIM&lt;/b&gt;" style="rounded=0;whiteSpace=wrap;html=1;fillColor=#dae8fc;strokeColor=#6c8ebf;shadow=0;sketch=1;curveFitting=1;jiggle=2;" parent="1" vertex="1">
          <mxGeometry x="794" y="591" width="30" height="41" as="geometry" />
        </mxCell>
        <mxCell id="7KX60_L7PwlLOZPD1mbC-30" value="&lt;b&gt;DIM&lt;/b&gt;" style="rounded=0;whiteSpace=wrap;html=1;fillColor=#dae8fc;strokeColor=#6c8ebf;shadow=0;sketch=1;curveFitting=1;jiggle=2;" parent="1" vertex="1">
          <mxGeometry x="702" y="601" width="30" height="41" as="geometry" />
        </mxCell>
        <mxCell id="7KX60_L7PwlLOZPD1mbC-31" value="&lt;b&gt;DIM&lt;/b&gt;" style="rounded=0;whiteSpace=wrap;html=1;fillColor=#dae8fc;strokeColor=#6c8ebf;shadow=0;sketch=1;curveFitting=1;jiggle=2;" parent="1" vertex="1">
          <mxGeometry x="442" y="601" width="30" height="41" as="geometry" />
        </mxCell>
        <mxCell id="7KX60_L7PwlLOZPD1mbC-32" value="&lt;b&gt;DIM&lt;/b&gt;" style="rounded=0;whiteSpace=wrap;html=1;fillColor=#dae8fc;strokeColor=#6c8ebf;shadow=0;sketch=1;curveFitting=1;jiggle=2;" parent="1" vertex="1">
          <mxGeometry x="542" y="601" width="30" height="41" as="geometry" />
        </mxCell>
        <mxCell id="7KX60_L7PwlLOZPD1mbC-34" value="&lt;font face=&quot;Comic Sans MS&quot; style=&quot;font-size: 24px;&quot;&gt;&lt;b style=&quot;&quot;&gt;Star Schema&lt;/b&gt;&lt;/font&gt;" style="text;html=1;align=center;verticalAlign=middle;whiteSpace=wrap;rounded=0;" parent="1" vertex="1">
          <mxGeometry x="121.5" y="95" width="133" height="30" as="geometry" />
        </mxCell>
        <mxCell id="7KX60_L7PwlLOZPD1mbC-35" value="&lt;font face=&quot;Comic Sans MS&quot; style=&quot;font-size: 24px;&quot;&gt;&lt;b style=&quot;&quot;&gt;Snowflake Schema&lt;/b&gt;&lt;/font&gt;" style="text;html=1;align=center;verticalAlign=middle;whiteSpace=wrap;rounded=0;" parent="1" vertex="1">
          <mxGeometry x="530" y="100" width="202" height="30" as="geometry" />
        </mxCell>
        <mxCell id="7KX60_L7PwlLOZPD1mbC-36" value="&lt;font style=&quot;font-size: 20px;&quot;&gt;&lt;b&gt;Simple &amp;amp; Easy&lt;/b&gt;&lt;/font&gt;" style="text;html=1;align=center;verticalAlign=middle;whiteSpace=wrap;rounded=0;fillColor=#d5e8d4;strokeColor=#82b366;" parent="1" vertex="1">
          <mxGeometry x="97.75" y="675" width="180.5" height="30" as="geometry" />
        </mxCell>
        <mxCell id="7KX60_L7PwlLOZPD1mbC-37" value="&lt;font style=&quot;font-size: 20px;&quot;&gt;&lt;b&gt;Big Dimension&lt;/b&gt;&lt;/font&gt;" style="text;html=1;align=center;verticalAlign=middle;whiteSpace=wrap;rounded=0;fillColor=#f8cecc;strokeColor=#b85450;" parent="1" vertex="1">
          <mxGeometry x="97.75" y="725" width="178.5" height="30" as="geometry" />
        </mxCell>
        <mxCell id="7KX60_L7PwlLOZPD1mbC-38" value="&lt;font style=&quot;font-size: 20px;&quot;&gt;&lt;b&gt;More complex&lt;/b&gt;&lt;/font&gt;" style="text;html=1;align=center;verticalAlign=middle;whiteSpace=wrap;rounded=0;fillColor=#f8cecc;strokeColor=#b85450;" parent="1" vertex="1">
          <mxGeometry x="543.5" y="675" width="180.5" height="30" as="geometry" />
        </mxCell>
        <mxCell id="7KX60_L7PwlLOZPD1mbC-39" value="&lt;font style=&quot;font-size: 20px;&quot;&gt;&lt;b&gt;Large datasets&lt;/b&gt;&lt;/font&gt;" style="text;html=1;align=center;verticalAlign=middle;whiteSpace=wrap;rounded=0;fillColor=#d5e8d4;strokeColor=#82b366;" parent="1" vertex="1">
          <mxGeometry x="543.5" y="725" width="178.5" height="30" as="geometry" />
        </mxCell>
        <mxCell id="u9IQ2udEwKAj1cHb5OEM-2" value="" style="endArrow=none;html=1;rounded=0;sketch=1;curveFitting=1;jiggle=2;" edge="1" parent="1">
          <mxGeometry width="50" height="50" relative="1" as="geometry">
            <mxPoint x="400" y="850" as="sourcePoint" />
            <mxPoint x="400" y="60" as="targetPoint" />
          </mxGeometry>
        </mxCell>
      </root>
    </mxGraphModel>
  </diagram>
</mxfile>
